<?xml version="1.0" encoding="iso-8859-1"?>
<!-- Generator: Adobe Illustrator 22.0.0, SVG Export Plug-In . SVG Version: 6.00 Build 0)  -->
<svg version="1.1" id="Capa_1" xmlns="http://www.w3.org/2000/svg" xmlns:xlink="http://www.w3.org/1999/xlink" x="0px" y="0px"
	 viewBox="0 0 508.629 508.629" style="enable-background:new 0 0 508.629 508.629;" xml:space="preserve">
<g>
	<g>
		<g>
			<g>
				<g>
					
						<rect x="168.412" y="115.419" transform="matrix(0.7583 -0.6519 0.6519 0.7583 -49.8206 154.9636)" style="fill:#FEDF30;" width="31.301" height="58.495"/>
				</g>
			</g>
		</g>
	</g>
	<g>
		<g>
			<g>
				<g>
					
						<rect x="120.425" y="100.773" transform="matrix(0.7583 -0.6519 0.6519 0.7583 -35.812 129.6595)" style="fill:#D7AA02;" width="73.037" height="24.7"/>
				</g>
			</g>
		</g>
	</g>
	<g>
		<g>
			<g>
				<g>
					
						<rect x="414.748" y="115.419" transform="matrix(-0.7583 -0.6519 0.6519 -0.7583 662.4508 534.9525)" style="fill:#FEDF30;" width="31.301" height="58.495"/>
				</g>
			</g>
		</g>
	</g>
	<g>
		<g>
			<g>
				<g>
					
						<rect x="420.999" y="100.773" transform="matrix(-0.7583 -0.6519 0.6519 -0.7583 730.6974 497.1701)" style="fill:#D7AA02;" width="73.037" height="24.7"/>
				</g>
			</g>
		</g>
	</g>
	<g>
		<g>
			<g>
				<g>
					<rect x="285.271" y="62.769" style="fill:#0055A3;" width="46.024" height="65.73"/>
				</g>
			</g>
		</g>
	</g>
	<g>
		<g>
			<g>
				<g>
					<path style="fill:#0473CE;" d="M364.624,66.886H251.941c-7.933,0-14.364-6.431-14.364-14.364v-17.45
						c0-7.933,6.431-14.364,14.364-14.364h112.684c7.933,0,14.364,6.431,14.364,14.364v17.45
						C378.988,60.455,372.557,66.886,364.624,66.886z"/>
				</g>
			</g>
		</g>
	</g>
	<g>
		<g>
			<g>
				<g>
					<path style="fill:#0055A3;" d="M364.624,20.708h-30c7.933,0,14.364,6.431,14.364,14.364v17.45
						c0,7.933-6.431,14.364-14.364,14.364h30c7.933,0,14.364-6.431,14.364-14.364v-17.45
						C378.988,27.139,372.557,20.708,364.624,20.708z"/>
				</g>
			</g>
		</g>
	</g>
	<g>
		<g>
			<g>
				<g>
					
						<ellipse transform="matrix(0.7071 -0.7071 0.7071 0.7071 -118.3558 304.4142)" style="fill:#26A6FE;" cx="308.283" cy="295.075" rx="192.846" ry="192.846"/>
				</g>
			</g>
		</g>
	</g>
	<g>
		<g>
			<g>
				<g>
					<path style="fill:#0593FC;" d="M308.282,102.229c-5.048,0-10.05,0.196-15,0.577c99.496,7.655,177.847,90.811,177.847,192.27
						s-78.351,184.615-177.847,192.27c4.95,0.381,9.952,0.577,15,0.577c106.506,0,192.847-86.34,192.847-192.847
						S414.789,102.229,308.282,102.229z"/>
				</g>
			</g>
		</g>
	</g>
	<g>
		<g>
			<g>
				<g>
					<circle style="fill:#FFF3EF;" cx="308.282" cy="295.075" r="150.18"/>
				</g>
			</g>
		</g>
	</g>
	<g>
		<g>
			<g>
				<g>
					<path style="fill:#D9E7EC;" d="M327.688,146.154c-11.723-1.528-23.305-1.655-34.581-0.519c1.525,0.152,3.051,0.32,4.581,0.519
						c82.247,10.717,140.233,86.08,129.515,168.327c-9.19,70.524-65.911,123.205-133.746,130.035
						c80.446,8.025,153.228-49.318,163.746-130.035C467.921,232.234,409.935,156.872,327.688,146.154z"/>
				</g>
			</g>
		</g>
	</g>
	<g>
		<path d="M451.73,155.367l10.401-12.099l10.136,8.715c1.365,1.174,3.102,1.813,4.89,1.813c0.188,0,0.376-0.007,0.564-0.021
			c1.983-0.15,3.826-1.081,5.123-2.59l16.103-18.73c2.7-3.141,2.343-7.876-0.798-10.576l-55.383-47.614
			c-1.509-1.297-3.47-1.949-5.454-1.792c-1.983,0.149-3.826,1.081-5.123,2.589l-16.103,18.73c-2.7,3.141-2.343,7.876,0.798,10.576
			l10.136,8.715l-11.197,13.024c-22.936-14.65-49.037-24.764-77.03-29.059V74.386h25.83c12.056,0,21.863-9.808,21.863-21.864v-17.45
			c0-12.056-9.808-21.864-21.863-21.864H251.94c-12.056,0-21.864,9.808-21.864,21.864v17.45c0,12.056,9.808,21.864,21.864,21.864
			h25.831v22.662c-28.545,4.38-55.119,14.816-78.38,29.936l-11.951-13.901l10.137-8.715c1.508-1.297,2.439-3.14,2.589-5.123
			c0.149-1.983-0.495-3.945-1.792-5.454l-16.103-18.73c-2.701-3.14-7.435-3.498-10.577-0.797l-55.382,47.614
			c-1.508,1.297-2.439,3.14-2.589,5.123c-0.149,1.983,0.495,3.945,1.792,5.454l16.103,18.73c1.483,1.725,3.581,2.61,5.69,2.61
			c1.731,0,3.471-0.596,4.886-1.813l10.136-8.714l11.387,13.244c-9.854,10.277-18.623,21.602-26.128,33.784
			c-0.253-0.026-0.51-0.039-0.771-0.039H89.455c-4.142,0-7.5,3.358-7.5,7.5s3.358,7.5,7.5,7.5h39.779
			c-3.949,7.84-7.397,15.972-10.304,24.356H43.151c-4.142,0-7.5,3.358-7.5,7.5s3.358,7.5,7.5,7.5h71.226
			c-2.708,10.396-4.588,21.121-5.591,32.097H7.5c-4.142,0-7.5,3.358-7.5,7.5s3.358,7.5,7.5,7.5h100.479
			c-0.019,1.121-0.043,2.24-0.043,3.366c0,9.755,0.715,19.345,2.069,28.731H36.151c-4.142,0-7.5,3.358-7.5,7.5s3.358,7.5,7.5,7.5
			h76.606c1.86,8.324,4.235,16.455,7.099,24.355H82.455c-4.142,0-7.5,3.358-7.5,7.5s3.358,7.5,7.5,7.5h43.54
			c31.63,69.119,101.439,117.26,182.288,117.26c42.227,0,82.614-12.984,116.796-37.548c3.363-2.417,4.131-7.104,1.714-10.467
			c-2.42-3.365-7.105-4.13-10.468-1.713c-31.615,22.72-68.976,34.729-108.042,34.729c-102.201,0-185.347-83.146-185.347-185.346
			c0-102.201,83.146-185.347,185.347-185.347c49.473,0,94.481,19.485,127.754,51.183c0.068,0.072,0.144,0.138,0.215,0.208
			c35.335,33.77,57.377,81.337,57.377,133.956c0,49.568-19.32,96.154-54.402,131.174c-2.932,2.927-2.936,7.675-0.009,10.607
			c2.926,2.931,7.675,2.936,10.606,0.009c37.921-37.855,58.805-88.21,58.805-141.791
			C508.629,240.788,486.916,191.485,451.73,155.367z M438.675,90.528l44.009,37.835l-6.324,7.355l-44.009-37.835L438.675,90.528z
			 M438.396,122.862l12.361,10.627l-9.9,11.516c-4.07-3.6-8.28-7.046-12.634-10.311L438.396,122.862z M275.114,59.386V28.208h12.112
			v31.178H275.114z M302.226,28.208h12.112v31.178h-12.112V28.208z M329.338,59.386V28.208h12.113v31.178H329.338z M371.488,35.072
			v17.45c0,3.785-3.079,6.864-6.863,6.864h-8.173V28.208h8.173C368.409,28.208,371.488,31.287,371.488,35.072z M245.077,52.522
			v-17.45c0-3.785,3.079-6.864,6.864-6.864h8.173v31.178h-8.173C248.156,59.386,245.077,56.307,245.077,52.522z M138.102,135.719
			l-6.324-7.355l44.008-37.835l6.324,7.355l-10.135,8.714c0,0-0.001,0.001-0.002,0.001l-23.735,20.406
			c-0.001,0.001-0.001,0.001-0.002,0.002L138.102,135.719z M163.929,133.296l12.136-10.434l11.009,12.805
			c-4.327,3.298-8.518,6.765-12.559,10.397l-10.811-12.574L163.929,133.296z M292.771,95.324V74.386h31.023v20.939
			c-5.12-0.394-10.293-0.596-15.512-0.596S297.891,94.931,292.771,95.324z"/>
		<path d="M245.469,158.435c-1.919-3.671-6.451-5.091-10.121-3.173c-45.598,23.834-76.784,68.484-83.424,119.438
			c-11.235,86.216,49.767,165.499,135.983,176.733c6.888,0.898,13.718,1.334,20.486,1.333
			c77.949-0.007,145.909-57.988,156.247-137.316c5.442-41.765-5.705-83.149-31.39-116.53
			c-25.684-33.38-62.829-54.761-104.595-60.204c-20.376-2.656-40.697-1.375-60.403,3.803c-4.006,1.053-6.4,5.154-5.348,9.16
			c1.053,4.006,5.156,6.398,9.16,5.348c9.438-2.48,19.037-3.961,28.717-4.458v19.705c0,4.142,3.357,7.5,7.5,7.5s7.5-3.358,7.5-7.5
			v-19.687c3.641,0.197,7.287,0.527,10.937,1.002c29.208,3.806,55.915,16.234,77.272,35.625l-13.583,13.582
			c-2.93,2.929-2.93,7.677-0.001,10.606c1.465,1.465,3.384,2.197,5.304,2.197c1.919,0,3.839-0.732,5.303-2.197l13.544-13.544
			c2.356,2.638,4.627,5.375,6.806,8.207c17.933,23.307,28.025,50.927,29.441,79.689H432.2c-4.143,0-7.5,3.358-7.5,7.5
			s3.357,7.5,7.5,7.5h18.563c-0.198,3.578-0.529,7.165-0.997,10.755c-3.864,29.649-16.627,55.997-35.241,76.719l-12.849-12.849
			c-2.93-2.929-7.678-2.929-10.607,0c-2.929,2.929-2.929,7.678,0,10.606l12.863,12.863c-23.623,21.33-54.212,34.716-87.214,36.658
			v-18.335c0-4.142-3.357-7.5-7.5-7.5s-7.5,3.358-7.5,7.5v18.427c-3.937-0.184-7.896-0.523-11.872-1.042
			c-29.323-3.821-55.421-16.343-76.038-34.625l13.284-13.284c2.929-2.929,2.929-7.677,0-10.606c-2.929-2.929-7.678-2.929-10.606,0
			l-13.36,13.359c-21.65-23.672-35.268-54.463-37.267-87.711H185.3c4.142,0,7.5-3.358,7.5-7.5s-3.358-7.5-7.5-7.5h-19.551
			c0.182-3.996,0.523-8.016,1.049-12.053c3.755-28.811,16.184-55.396,35.048-76.55l13.978,13.977
			c1.464,1.465,3.384,2.197,5.303,2.197s3.839-0.732,5.303-2.197c2.929-2.929,2.929-7.678,0-10.606l-14.016-14.016
			c8.934-8.119,18.944-15.171,29.882-20.888C245.967,166.637,247.388,162.105,245.469,158.435z"/>
		<path d="M308.283,226.278c-4.143,0-7.5,3.358-7.5,7.5v44.55c-6.395,2.876-10.866,9.293-10.866,16.748
			c0,10.127,8.239,18.366,18.366,18.366c2.776,0,5.4-0.637,7.762-1.745l50.037,50.037c1.465,1.465,3.384,2.197,5.304,2.197
			c1.919,0,3.839-0.732,5.304-2.197c2.929-2.929,2.929-7.678,0-10.606l-50.812-50.813c0.496-1.662,0.771-3.418,0.771-5.239
			c0-7.454-4.471-13.872-10.865-16.747v-44.55C315.783,229.636,312.425,226.278,308.283,226.278z M304.917,295.075
			c0-1.856,1.51-3.366,3.366-3.366c1.855,0,3.365,1.51,3.365,3.366s-1.51,3.366-3.365,3.366
			C306.426,298.441,304.917,296.931,304.917,295.075z"/>
	</g>
</g>
<g>
</g>
<g>
</g>
<g>
</g>
<g>
</g>
<g>
</g>
<g>
</g>
<g>
</g>
<g>
</g>
<g>
</g>
<g>
</g>
<g>
</g>
<g>
</g>
<g>
</g>
<g>
</g>
<g>
</g>
</svg>
