<?xml version="1.0" encoding="iso-8859-1"?>
<!-- Generator: Adobe Illustrator 22.0.0, SVG Export Plug-In . SVG Version: 6.00 Build 0)  -->
<svg version="1.1" id="Capa_1" xmlns="http://www.w3.org/2000/svg" xmlns:xlink="http://www.w3.org/1999/xlink" x="0px" y="0px"
	 viewBox="0 0 512 512" style="enable-background:new 0 0 512 512;" xml:space="preserve">
<g>
	<g>
		<g>
			<g>
				<g>
					<path style="fill:#C5D3DD;" d="M480.119,373.214V112.428c0-12.965-10.511-23.476-23.476-23.476H56.357
						c-12.965,0-23.476,10.51-23.476,23.476v260.786H480.119z"/>
				</g>
			</g>
		</g>
	</g>
	<g>
		<g>
			<g>
				<g>
					<path style="fill:#B6C4CF;" d="M456.643,88.952h-30c12.965,0,23.476,10.51,23.476,23.476v260.786h30V112.428
						C480.119,99.463,469.608,88.952,456.643,88.952z"/>
				</g>
			</g>
		</g>
	</g>
	<g>
		<g>
			<g>
				<g>
					<path style="fill:#7A8C98;" d="M67.881,373.214V137.227c0-7.331,5.943-13.274,13.274-13.274h349.69
						c7.331,0,13.274,5.943,13.274,13.274v235.987H67.881z"/>
				</g>
			</g>
		</g>
	</g>
	<g>
		<g>
			<g>
				<g>
					<path style="fill:#596C76;" d="M430.845,123.952h-30c7.331,0,13.274,5.943,13.274,13.274v235.987h30V137.227
						C444.119,129.895,438.176,123.952,430.845,123.952z"/>
				</g>
			</g>
		</g>
	</g>
	<g>
		<g>
			<g>
				<g>
					<path style="fill:#528FD8;" d="M412.213,227.1c0-20.783-13.407-38.424-32.039-44.778v47.438l-15.273,7.307l-14.659-7.307
						v-47.646c-18.952,6.172-32.654,23.974-32.654,44.986c0,19.716,12.063,36.609,29.209,43.717v102.367h35.385V271.142
						C399.761,264.238,412.213,247.129,412.213,227.1z"/>
				</g>
			</g>
		</g>
	</g>
	<g>
		<g>
			<g>
				<g>
					<path style="fill:#0473CE;" d="M380.174,182.322v31.029c1.321,4.351,2.039,8.965,2.039,13.749
						c0,20.029-12.452,37.138-30.031,44.042v102.042h30V271.142c17.58-6.904,30.031-24.013,30.031-44.042
						C412.213,206.317,398.806,188.676,380.174,182.322z"/>
				</g>
			</g>
		</g>
	</g>
	<g>
		<g>
			<g>
				<g>
					<path style="fill:#D9E7EC;" d="M489.446,423.048H22.554c-8.314,0-15.054-6.74-15.054-15.054v-34.809h497v34.809
						C504.5,416.308,497.76,423.048,489.446,423.048z"/>
				</g>
			</g>
		</g>
	</g>
	<g>
		<g>
			<g>
				<g>
					<path style="fill:#C5D3DD;" d="M474.5,373.184v34.809c0,8.314-6.74,15.054-15.054,15.054h30c8.314,0,15.054-6.74,15.054-15.054
						v-34.809H474.5z"/>
				</g>
			</g>
		</g>
	</g>
	<g>
		<g>
			<g>
				<g>
					<path style="fill:#8D9CA8;" d="M292.775,398.116h-73.55c-13.769,0-24.932-11.162-24.932-24.932l0,0h123.413l0,0
						C317.707,386.954,306.544,398.116,292.775,398.116z"/>
				</g>
			</g>
		</g>
	</g>
	<g>
		<g>
			<g>
				<g>
					<path style="fill:#B6C4CF;" d="M275.127,224.557h-13.804c-5.126,0-9.617,3.433-10.962,8.38l-6.193,22.787
						c-0.511,1.882-0.53,3.863-0.054,5.754l8.181,32.48c0.228,0.907,0.344,1.839,0.344,2.774v76.452h31.26v-76.4
						c0-0.97,0.124-1.935,0.369-2.873l8.13-31.097c0.493-1.884,0.493-3.863,0-5.747l-6.281-24.024
						C284.81,228.044,280.294,224.557,275.127,224.557z"/>
				</g>
			</g>
		</g>
	</g>
	<g>
		<g>
			<g>
				<g>
					<path style="fill:#9FACBA;" d="M292.398,257.067l-6.281-24.024c-1.307-4.999-5.823-8.486-10.99-8.486h-13.804
						c-3.128,0-6.015,1.283-8.099,3.403c1.357,1.38,2.378,3.111,2.893,5.083l6.281,24.024c0.493,1.884,0.493,3.863,0,5.747
						l-8.13,31.097c-0.245,0.938-0.37,1.904-0.37,2.873v76.4h30v-76.4c0-0.97,0.124-1.935,0.37-2.873l8.13-31.097
						C292.89,260.93,292.89,258.951,292.398,257.067z"/>
				</g>
			</g>
		</g>
	</g>
	<g>
		<g>
			<g>
				<g>
					<path style="fill:#FFF3EF;" d="M204.829,306.39l-7.456-2.733c3.169-8.929,3.073-18.236,0.346-26.621l7.546-2.45
						c2.15-0.698,3.272-3.08,2.412-5.171c-5.226-12.705-14.992-22.764-27.529-28.353c-2.056-0.917-4.462,0.121-5.232,2.237
						l-2.715,7.453c-8.927-3.174-18.234-3.083-26.62-0.361l-2.447-7.552c-0.693-2.139-3.059-3.275-5.139-2.422
						c-12.728,5.218-22.805,14.988-28.404,27.539c-0.92,2.062,0.127,4.473,2.252,5.238l7.447,2.678
						c-3.188,8.933-3.103,18.249-0.384,26.643l-7.553,2.443c-2.148,0.695-3.272,3.071-2.42,5.162
						c5.194,12.746,14.875,23.041,27.379,28.692c2.091,0.945,4.542-0.063,5.314-2.224l2.688-7.532l0,0l0.027-0.075l0.054-0.151
						c8.925,3.185,18.232,3.103,26.621,0.392l2.439,7.555c0.691,2.14,3.055,3.278,5.136,2.428
						c12.762-5.215,22.864-15.002,28.47-27.584C207.974,309.566,206.94,307.164,204.829,306.39z M152.965,304.778
						c-8.259-2.952-12.577-12.074-9.624-20.333c2.952-8.259,12.074-12.577,20.333-9.624s12.577,12.074,9.624,20.333
						C170.346,303.412,161.225,307.73,152.965,304.778z"/>
				</g>
			</g>
		</g>
	</g>
	<g>
		<g>
			<g>
				<g>
					<path style="fill:#D9E7EC;" d="M204.829,306.39l-7.456-2.733c3.169-8.929,3.073-18.236,0.346-26.621l7.546-2.45
						c2.15-0.698,3.272-3.08,2.412-5.171c-5.226-12.705-14.992-22.764-27.529-28.353c-2.056-0.917-4.462,0.122-5.232,2.237
						l-2.715,7.453c-3.284-1.167-6.619-1.89-9.942-2.205c6.724,5.516,12.03,12.63,15.418,20.868c0.86,2.091-0.262,4.473-2.412,5.171
						l-7.484,2.43c5.483,4.063,7.931,11.386,5.518,18.137c-1.112,3.11-3.098,5.659-5.584,7.473c-0.112,0.344-0.22,0.688-0.342,1.031
						l7.456,2.733c2.111,0.774,3.145,3.176,2.229,5.23c-3.402,7.636-8.469,14.233-14.773,19.413c2.98-0.293,5.906-0.899,8.727-1.811
						l2.439,7.554c0.691,2.14,3.055,3.278,5.136,2.428c12.762-5.215,22.864-15.002,28.47-27.584
						C207.974,309.566,206.94,307.164,204.829,306.39z"/>
				</g>
			</g>
		</g>
	</g>
	<g>
		<path d="M504.5,365.684h-16.881V112.428c0-17.08-13.896-30.976-30.976-30.976H144.949c-4.143,0-7.5,3.358-7.5,7.5
			s3.357,7.5,7.5,7.5h311.694c8.809,0,15.976,7.167,15.976,15.976v253.256h-21V137.227c0-11.455-9.319-20.774-20.774-20.774H81.155
			c-11.455,0-20.774,9.319-20.774,20.774v228.458h-20V112.428c0-8.809,7.167-15.976,15.976-15.976h58.593c4.143,0,7.5-3.358,7.5-7.5
			s-3.357-7.5-7.5-7.5H56.356c-17.08,0-30.976,13.896-30.976,30.976v253.256H7.5c-4.143,0-7.5,3.358-7.5,7.5v34.809
			c0,12.436,10.117,22.554,22.554,22.554h98.772c4.143,0,7.5-3.358,7.5-7.5s-3.357-7.5-7.5-7.5H22.554
			c-4.165,0-7.554-3.389-7.554-7.554v-27.309h172.679c3.395,14.277,16.246,24.932,31.547,24.932h73.55
			c15.301,0,28.152-10.654,31.547-24.932H497v27.309c0,4.165-3.389,7.554-7.554,7.554h-338.12c-4.143,0-7.5,3.358-7.5,7.5
			s3.357,7.5,7.5,7.5h338.12c12.437,0,22.554-10.118,22.554-22.554v-34.809C512,369.042,508.643,365.684,504.5,365.684z
			 M259.566,292.126l-8.18-32.481c-0.161-0.641-0.155-1.317,0.018-1.954l6.193-22.787c0.456-1.677,1.987-2.847,3.725-2.847h13.805
			c1.755,0,3.29,1.186,3.734,2.883l6.28,24.026c0.167,0.637,0.167,1.311,0,1.95l-8.131,31.098c-0.406,1.556-0.612,3.161-0.612,4.769
			v68.9h-16.26v-68.952C260.139,295.182,259.946,293.632,259.566,292.126z M349.669,263.889
			c-14.933-6.191-24.581-20.632-24.581-36.789c0-13.561,6.794-25.845,17.654-33.095v35.756c0,2.844,1.608,5.443,4.154,6.712
			l14.658,7.307c2.068,1.031,4.497,1.051,6.583,0.053l15.273-7.307c2.604-1.246,4.263-3.878,4.263-6.766v-35.32
			c10.491,7.314,17.039,19.414,17.039,32.659c0,16.484-9.92,31.031-25.272,37.061c-2.871,1.127-4.759,3.897-4.759,6.981v94.542
			h-20.385v-94.867C354.297,267.785,352.471,265.051,349.669,263.889z M75.381,137.227c0-3.184,2.591-5.774,5.774-5.774h349.689
			c3.184,0,5.774,2.59,5.774,5.774v228.458h-46.938v-89.689c18.402-9.28,30.031-27.952,30.031-48.895
			c0-23.458-14.917-44.305-37.118-51.876c-2.293-0.781-4.816-0.408-6.785,0.999c-1.968,1.408-3.136,3.679-3.136,6.099v42.713
			l-7.706,3.687l-7.226-3.602v-43.005c0-2.402-1.15-4.658-3.094-6.069c-1.942-1.411-4.445-1.807-6.729-1.062
			c-22.629,7.369-37.832,28.314-37.832,52.117c0,20.527,11.311,39.04,29.209,48.473v90.111h-21.59h-26.309v-68.9
			c0-0.33,0.042-0.659,0.125-0.977l8.13-31.094c0.817-3.122,0.817-6.423,0-9.543l-6.28-24.025
			c-2.17-8.295-9.673-14.088-18.246-14.088h-13.805c-8.488,0-15.973,5.721-18.199,13.913l-6.194,22.789
			c-0.846,3.117-0.876,6.42-0.087,9.55l8.18,32.48c0.078,0.309,0.117,0.626,0.117,0.942v68.952h-50.845H75.381V137.227z
			 M292.775,390.616h-73.55c-6.929,0-12.926-4.063-15.734-9.932H308.51C305.701,386.553,299.704,390.616,292.775,390.616z"/>
		<path d="M122.415,173.725h88.779c4.143,0,7.5-3.358,7.5-7.5s-3.357-7.5-7.5-7.5h-88.779c-4.143,0-7.5,3.358-7.5,7.5
			S118.272,173.725,122.415,173.725z"/>
		<path d="M122.415,205.107h37.389c4.143,0,7.5-3.358,7.5-7.5s-3.357-7.5-7.5-7.5h-37.389c-4.143,0-7.5,3.358-7.5,7.5
			S118.272,205.107,122.415,205.107z"/>
		<path d="M213.909,314.672c1.276-2.863,1.306-6.164,0.083-9.055c-1.228-2.9-3.626-5.185-6.582-6.268l-1.01-0.37
			c1.08-5.604,1.159-11.314,0.233-16.951l0.946-0.307c3.013-0.978,5.504-3.188,6.834-6.064c1.325-2.865,1.397-6.18,0.199-9.094
			c-5.959-14.488-17.115-25.977-31.412-32.351c-2.867-1.277-6.171-1.307-9.066-0.079c-2.903,1.231-5.188,3.637-6.267,6.599
			l-0.359,0.987c-5.598-1.08-11.301-1.161-16.933-0.239l-0.309-0.954c-0.978-3.014-3.187-5.506-6.061-6.839
			c-2.855-1.323-6.156-1.4-9.058-0.209c-14.515,5.95-26.023,17.109-32.409,31.422c-1.282,2.875-1.309,6.187-0.072,9.087
			c1.241,2.91,3.659,5.194,6.636,6.264l0.938,0.338c-1.081,5.594-1.164,11.296-0.246,16.926l-0.953,0.308
			c-3.009,0.973-5.5,3.177-6.834,6.045c-1.33,2.859-1.411,6.17-0.223,9.083c5.984,14.686,17.078,26.298,31.234,32.696
			c2.911,1.316,6.264,1.357,9.199,0.111c2.917-1.239,5.201-3.662,6.268-6.648l0.439-1.23c5.579,1.076,11.265,1.16,16.88,0.248
			l0.308,0.953c0.973,3.015,3.179,5.51,6.051,6.846c1.512,0.704,3.15,1.057,4.789,1.057c1.453,0,2.906-0.278,4.271-0.836
			C195.98,340.199,207.517,329.021,213.909,314.672z M190.587,279.356c2.331,7.169,2.233,14.704-0.282,21.793
			c-1.375,3.875,0.626,8.135,4.487,9.551l3.686,1.351c-4.393,7.978-11.021,14.409-19.134,18.562l-1.192-3.694
			c-0.611-1.894-1.95-3.467-3.722-4.373c-1.067-0.546-2.239-0.823-3.416-0.823c-0.776,0-1.555,0.12-2.307,0.364
			c-7.174,2.32-14.71,2.209-21.794-0.319c-1.872-0.669-3.938-0.565-5.739,0.29c-1.799,0.854-3.184,2.389-3.85,4.266l-0.034,0.096
			c-0.005,0.014-0.037,0.104-0.042,0.118l-1.317,3.69c-7.878-4.418-14.265-11.131-18.432-19.374l3.714-1.201
			c1.893-0.612,3.465-1.952,4.37-3.724c0.905-1.771,1.069-3.83,0.456-5.723c-2.325-7.18-2.217-14.722,0.313-21.812
			c1.39-3.894-0.635-8.178-4.525-9.578l-3.642-1.31c4.384-7.942,10.987-14.347,19.064-18.494l1.196,3.693
			c0.613,1.893,1.954,3.464,3.727,4.369c1.773,0.905,3.832,1.067,5.724,0.453c7.17-2.327,14.707-2.225,21.792,0.294
			c3.886,1.38,8.149-0.629,9.56-4.5l1.337-3.671c7.946,4.379,14.358,10.981,18.511,19.056l-3.691,1.199
			c-1.893,0.615-3.463,1.956-4.366,3.729S189.972,277.464,190.587,279.356z"/>
		<path d="M166.198,267.758c-5.883-2.103-12.236-1.786-17.89,0.891c-5.655,2.677-9.928,7.39-12.03,13.271
			c-4.344,12.154,2.009,25.575,14.162,29.919c0,0,0,0,0,0c2.595,0.927,5.247,1.367,7.856,1.367c9.614,0,18.646-5.971,22.063-15.529
			c2.103-5.881,1.786-12.235-0.892-17.891C176.792,274.133,172.079,269.86,166.198,267.758z M166.235,292.629
			c-1.561,4.366-6.383,6.647-10.746,5.086v0c-4.364-1.56-6.646-6.381-5.086-10.746c0.753-2.108,2.288-3.799,4.322-4.762
			c2.035-0.963,4.316-1.077,6.424-0.325c2.107,0.754,3.799,2.289,4.762,4.323C166.874,288.24,166.989,290.521,166.235,292.629z"/>
	</g>
</g>
<g>
</g>
<g>
</g>
<g>
</g>
<g>
</g>
<g>
</g>
<g>
</g>
<g>
</g>
<g>
</g>
<g>
</g>
<g>
</g>
<g>
</g>
<g>
</g>
<g>
</g>
<g>
</g>
<g>
</g>
</svg>
