<?xml version="1.0" encoding="iso-8859-1"?>
<!-- Generator: Adobe Illustrator 22.0.0, SVG Export Plug-In . SVG Version: 6.00 Build 0)  -->
<svg version="1.1" id="Capa_1" xmlns="http://www.w3.org/2000/svg" xmlns:xlink="http://www.w3.org/1999/xlink" x="0px" y="0px"
	 viewBox="0 0 507.769 507.769" style="enable-background:new 0 0 507.769 507.769;" xml:space="preserve">
<g>
	<g>
		<g>
			<g>
				<g>
					<path style="fill:#FFF3EF;" d="M93.861,500.269h320.047c12.279,0,22.234-9.954,22.234-22.234V29.734
						c0-12.279-9.954-22.234-22.234-22.234H189.271c-9.686,0-18.976,3.848-25.826,10.697L82.324,93.76
						c-6.849,6.849-10.697,16.139-10.697,25.826v358.449C71.627,490.314,81.582,500.269,93.861,500.269z"/>
				</g>
			</g>
		</g>
	</g>
	<g>
		<g>
			<g>
				<g>
					<path style="fill:#FFEED6;" d="M413.908,7.499h-30c12.279,0,22.234,9.955,22.234,22.234v448.302
						c0,12.279-9.954,22.234-22.234,22.234h30c12.279,0,22.234-9.955,22.234-22.234V29.733
						C436.141,17.454,426.187,7.499,413.908,7.499z"/>
				</g>
			</g>
		</g>
	</g>
	<g>
		<g>
			<g>
				<path style="fill:#FED2A4;" d="M76.682,109.723h79.399c12.884,0,23.328-10.444,23.328-23.328v-74.7"/>
			</g>
		</g>
	</g>
	<g>
		<g>
			<g>
				<g>
					<circle style="fill:#FFF3EF;" cx="309.989" cy="302.67" r="65.453"/>
				</g>
			</g>
		</g>
	</g>
	<g>
		<g>
			<g>
				<g>
					<path style="fill:#7A8C98;" d="M321.126,271.565v36.198l-11.137,5.552l-11.604-5.552v-36.04
						c-14.155,4.827-24.341,18.229-24.341,34.019c0,15.217,9.46,28.216,22.816,33.46v27.602c4.242,0.864,8.632,1.318,13.129,1.318
						c4.72,0,9.318-0.511,13.754-1.459v-27.708c13.026-5.401,22.191-18.235,22.191-33.214
						C345.934,289.779,335.524,276.254,321.126,271.565z"/>
				</g>
			</g>
		</g>
	</g>
	<g>
		<path d="M71.627,314.255c4.143,0,7.5-3.358,7.5-7.5v-187.17c0-0.793,0.04-1.581,0.102-2.363h76.851
			c16.999,0,30.828-13.83,30.828-30.828V15.102c0.782-0.063,1.57-0.102,2.363-0.102h62.641c4.143,0,7.5-3.358,7.5-7.5
			s-3.357-7.5-7.5-7.5h-62.641c-11.713,0-22.728,4.543-31.03,12.795L77.212,88.272l-0.191,0.185
			c-8.314,8.315-12.894,19.37-12.894,31.129v187.17C64.127,310.897,67.484,314.255,71.627,314.255z M168.559,23.685l0.191-0.185
			c0.995-0.996,2.052-1.907,3.158-2.737v65.631c0,8.728-7.101,15.828-15.828,15.828H84.892c0.805-1.074,1.686-2.102,2.647-3.071
			L168.559,23.685z"/>
		<path d="M413.907,0H281.912c-4.143,0-7.5,3.358-7.5,7.5s3.357,7.5,7.5,7.5h131.995c8.125,0,14.734,6.609,14.734,14.733v448.302
			c0,8.124-6.609,14.733-14.734,14.733H93.861c-8.125,0-14.734-6.609-14.734-14.733v-141.28c0-4.142-3.357-7.5-7.5-7.5
			s-7.5,3.358-7.5,7.5v141.28c0,16.395,13.339,29.733,29.734,29.733h320.046c16.396,0,29.734-13.338,29.734-29.733V29.733
			C443.642,13.338,430.303,0,413.907,0z"/>
		<path d="M299.737,440.852c5.245,0,7.583,0.731,10.542,1.658c3.509,1.098,7.485,2.342,15.023,2.342s11.515-1.244,15.023-2.342
			c2.961-0.926,5.299-1.658,10.546-1.658c5.246,0,7.584,0.731,10.545,1.658c3.509,1.098,7.485,2.342,15.023,2.342
			c4.143,0,7.5-3.358,7.5-7.5s-3.357-7.5-7.5-7.5c-5.246,0-7.584-0.731-10.545-1.658c-3.509-1.098-7.485-2.342-15.023-2.342
			c-7.539,0-11.516,1.244-15.024,2.342c-2.961,0.926-5.299,1.658-10.545,1.658s-7.584-0.731-10.543-1.658
			c-3.509-1.098-7.485-2.342-15.022-2.342c-4.143,0-7.5,3.358-7.5,7.5S295.595,440.852,299.737,440.852z"/>
		<path d="M136.864,440.852c5.246,0,7.584,0.731,10.543,1.658c3.509,1.098,7.485,2.342,15.022,2.342
			c7.538,0,11.515-1.244,15.023-2.342c2.961-0.926,5.299-1.658,10.546-1.658c5.246,0,7.584,0.731,10.545,1.658
			c3.509,1.098,7.485,2.342,15.023,2.342c4.143,0,7.5-3.358,7.5-7.5s-3.357-7.5-7.5-7.5c-5.246,0-7.584-0.731-10.545-1.658
			c-3.509-1.098-7.485-2.342-15.023-2.342c-7.539,0-11.516,1.244-15.024,2.342c-2.961,0.926-5.299,1.658-10.545,1.658
			c-5.245,0-7.583-0.731-10.542-1.658c-3.509-1.098-7.485-2.342-15.023-2.342c-4.143,0-7.5,3.358-7.5,7.5
			S132.722,440.852,136.864,440.852z"/>
		<path d="M375.528,117.223c4.143,0,7.5-3.358,7.5-7.5s-3.357-7.5-7.5-7.5h-58.933c-4.143,0-7.5,3.358-7.5,7.5s3.357,7.5,7.5,7.5
			H375.528z"/>
		<path d="M124.826,153.646c0,4.142,3.357,7.5,7.5,7.5h243.116c4.143,0,7.5-3.358,7.5-7.5s-3.357-7.5-7.5-7.5H132.326
			C128.184,146.146,124.826,149.503,124.826,153.646z"/>
		<path d="M382.942,194.979c0-4.142-3.357-7.5-7.5-7.5H132.326c-4.143,0-7.5,3.358-7.5,7.5s3.357,7.5,7.5,7.5h243.116
			C379.585,202.479,382.942,199.121,382.942,194.979z"/>
		<path d="M132.326,243.813h63.779c4.143,0,7.5-3.358,7.5-7.5s-3.357-7.5-7.5-7.5h-63.779c-4.143,0-7.5,3.358-7.5,7.5
			S128.184,243.813,132.326,243.813z"/>
		<path d="M132.326,285.146h63.779c4.143,0,7.5-3.358,7.5-7.5s-3.357-7.5-7.5-7.5h-63.779c-4.143,0-7.5,3.358-7.5,7.5
			S128.184,285.146,132.326,285.146z"/>
		<path d="M132.326,326.479h63.779c4.143,0,7.5-3.358,7.5-7.5s-3.357-7.5-7.5-7.5h-63.779c-4.143,0-7.5,3.358-7.5,7.5
			S128.184,326.479,132.326,326.479z"/>
		<path d="M132.326,364.813h63.779c4.143,0,7.5-3.358,7.5-7.5s-3.357-7.5-7.5-7.5h-63.779c-4.143,0-7.5,3.358-7.5,7.5
			S128.184,364.813,132.326,364.813z"/>
		<path d="M309.989,375.623c40.227,0,72.953-32.727,72.953-72.953s-32.727-72.953-72.953-72.953s-72.953,32.727-72.953,72.953
			S269.763,375.623,309.989,375.623z M299.602,332.222c-10.97-4.308-18.058-14.701-18.058-26.479c0-8.206,3.519-15.797,9.341-21.077
			v23.098c0,2.888,1.658,5.519,4.264,6.766l11.604,5.552c2.085,0.998,4.515,0.979,6.582-0.053l11.137-5.552
			c2.546-1.269,4.154-3.868,4.154-6.712v-23.53c6.105,5.281,9.808,13.047,9.808,21.509c0,11.544-6.894,21.862-17.563,26.285
			c-2.802,1.162-4.628,3.896-4.628,6.928v21.325c-0.021,0.002-0.042,0.006-0.063,0.008c-0.75,0.081-1.501,0.135-2.252,0.186
			c-0.25,0.017-0.498,0.043-0.75,0.057c-0.629,0.035-1.258,0.044-1.887,0.059c-0.375,0.008-0.747,0.027-1.124,0.029
			c-0.555,0.002-1.109-0.02-1.663-0.033c-0.442-0.011-0.886-0.013-1.325-0.034c-0.525-0.025-1.049-0.072-1.573-0.111
			c-0.416-0.031-0.833-0.055-1.247-0.095v-21.143C304.36,336.119,302.473,333.349,299.602,332.222z M309.989,244.717
			c31.955,0,57.953,25.998,57.953,57.953c0,24.454-15.232,45.402-36.699,53.898v-12.928c13.629-7.624,22.19-22,22.19-37.898
			c0-18.867-12.05-35.467-29.985-41.308c-2.288-0.747-4.787-0.348-6.729,1.062c-1.943,1.411-3.094,3.667-3.094,6.069v31.557
			l-3.704,1.847l-4.037-1.931v-31.314c0-2.42-1.168-4.691-3.136-6.1c-1.968-1.407-4.494-1.78-6.785-0.999
			c-17.597,6.001-29.42,22.525-29.42,41.118c0,16.223,8.803,30.726,22.816,38.242v12.831c-21.797-8.333-37.324-29.454-37.324-54.145
			C252.036,270.714,278.034,244.717,309.989,244.717z"/>
	</g>
</g>
<g>
</g>
<g>
</g>
<g>
</g>
<g>
</g>
<g>
</g>
<g>
</g>
<g>
</g>
<g>
</g>
<g>
</g>
<g>
</g>
<g>
</g>
<g>
</g>
<g>
</g>
<g>
</g>
<g>
</g>
</svg>
