<?xml version="1.0" encoding="iso-8859-1"?>
<!-- Generator: Adobe Illustrator 22.0.0, SVG Export Plug-In . SVG Version: 6.00 Build 0)  -->
<svg version="1.1" id="Capa_1" xmlns="http://www.w3.org/2000/svg" xmlns:xlink="http://www.w3.org/1999/xlink" x="0px" y="0px"
	 viewBox="0 0 511.946 511.946" style="enable-background:new 0 0 511.946 511.946;" xml:space="preserve">
<g>
	<g>
		<g>
			<g>
				<g>
					<path style="fill:#EF4424;" d="M107.12,35.212c-3.026,1.296-5.582,3.479-7.354,6.253
						c-28.279,44.267-45.344,101.554-45.344,164.14c0,120.491,148.739,258.339,190.667,294.805c6.243,5.43,15.523,5.43,21.767,0
						c41.929-36.465,190.667-174.314,190.667-294.805c0-62.586-17.065-119.872-45.344-164.14c-1.772-2.774-4.328-4.957-7.354-6.253
						l-5.694-2.439c-78.737-33.723-207.581-33.723-286.318,0L107.12,35.212z"/>
				</g>
			</g>
		</g>
	</g>
	<g>
		<g>
			<g>
				<g>
					<path style="fill:#D73D24;" d="M412.179,41.465c-1.772-2.774-4.328-4.957-7.354-6.253l-5.694-2.439
						C355.967,14.287,297.744,5.936,240.973,7.719c46.786,1.469,92.586,9.819,128.159,25.055l5.694,2.439
						c3.025,1.296,5.582,3.479,7.354,6.253c28.279,44.267,45.344,101.554,45.344,164.14c0,116.828-139.829,249.971-186.551,291.198
						c1.465,1.293,2.842,2.499,4.117,3.607c6.243,5.43,15.523,5.43,21.767,0c41.929-36.465,190.667-174.314,190.667-294.805
						C457.523,143.019,440.458,85.732,412.179,41.465z"/>
				</g>
			</g>
		</g>
	</g>
	<g>
		<g>
			<g>
				<g>
					<path style="fill:#FD6930;" d="M267.398,444.863c-6.406,6.087-16.444,6.087-22.85,0c-17.145-16.293-38.329-37.682-59.32-62.125
						c-58.954-68.649-90.116-129.9-90.116-177.133c0-47.753,11.39-93.646,32.319-131.145c1.755-3.144,4.509-5.612,7.818-7.03l0,0
						c34.13-14.618,77.004-22.668,120.724-22.668c43.72,0,86.593,8.05,120.724,22.668l0,0c3.309,1.418,6.063,3.885,7.817,7.029
						c20.929,37.499,32.319,83.393,32.319,131.146c0,47.233-31.161,108.484-90.116,177.133
						C305.729,407.178,284.543,428.569,267.398,444.863z"/>
				</g>
			</g>
		</g>
	</g>
	<g>
		<g>
			<g>
				<g>
					<path style="fill:#FD5426;" d="M384.514,74.459c-1.754-3.144-4.508-5.612-7.817-7.029
						c-34.131-14.618-77.004-22.668-120.724-22.668c-5.016,0-10.018,0.119-15,0.328c38.44,1.618,75.509,9.399,105.724,22.34
						c3.309,1.418,6.063,3.885,7.817,7.029c20.929,37.499,32.319,83.393,32.319,131.146c0,47.233-31.161,108.484-90.116,177.133
						c-19.554,22.77-39.275,42.888-55.745,58.708c1.209,1.161,2.403,2.303,3.575,3.417c6.406,6.087,16.444,6.087,22.85,0
						c17.146-16.293,38.331-37.685,59.32-62.125c58.954-68.649,90.116-129.9,90.116-177.133
						C416.834,157.852,405.443,111.958,384.514,74.459z"/>
				</g>
			</g>
		</g>
	</g>
	<g>
		<g>
			<g>
				<g>
					<path style="fill:#D9E7EC;" d="M325.14,147.378l5.578-11.189h36.369c-4.711-14.466-18.3-24.925-34.338-24.925
						c-15.049,0-27.944,9.208-33.37,22.295h-86.813c-5.426-13.087-18.32-22.295-33.37-22.295c-16.038,0-29.627,10.459-34.338,24.925
						h36.369l5.578,11.189l-5.578,11.658h-36.21c4.85,14.222,18.315,24.455,34.179,24.455c15.288,0,28.348-9.505,33.617-22.923
						h86.318c5.27,13.419,18.329,22.923,33.617,22.923c15.864,0,29.329-10.233,34.179-24.455h-36.21L325.14,147.378z"/>
				</g>
			</g>
		</g>
	</g>
	<g>
		<g>
			<g>
				<g>
					<path style="fill:#FEFEFE;" d="M247.182,209.971l-57.561,99.698c-3.907,6.767,0.977,15.227,8.791,15.227h115.121
						c7.814,0,12.698-8.459,8.791-15.227l-57.561-99.698C260.857,203.204,251.089,203.204,247.182,209.971l-57.561,99.698
						c-3.907,6.767,0.977,15.227,8.791,15.227h115.121c7.814,0,12.698-8.459,8.791-15.227l-57.561-99.698
						C260.857,203.204,251.089,203.204,247.182,209.971z"/>
				</g>
			</g>
		</g>
	</g>
	<g>
		<g>
			<g>
				<g>
					<path style="fill:#FEFEFE;" d="M247.182,209.971l-57.561,99.698c-3.907,6.767,0.977,15.227,8.791,15.227h115.121
						c7.814,0,12.698-8.459,8.791-15.227l-57.561-99.698C260.857,203.204,251.089,203.204,247.182,209.971l-57.561,99.698
						c-3.907,6.767,0.977,15.227,8.791,15.227h115.121c7.814,0,12.698-8.459,8.791-15.227l-57.561-99.698
						C260.857,203.204,251.089,203.204,247.182,209.971z"/>
				</g>
			</g>
		</g>
	</g>
	<g>
		<g>
			<g>
				<g>
					<path style="fill:#FEFEFE;" d="M247.182,209.971l-57.561,99.698c-3.907,6.767,0.977,15.227,8.791,15.227h115.121
						c7.814,0,12.698-8.459,8.791-15.227l-57.561-99.698C260.857,203.204,251.089,203.204,247.182,209.971l-57.561,99.698
						c-3.907,6.767,0.977,15.227,8.791,15.227h115.121c7.814,0,12.698-8.459,8.791-15.227l-57.561-99.698
						C260.857,203.204,251.089,203.204,247.182,209.971z"/>
				</g>
			</g>
		</g>
	</g>
	<g>
		<g>
			<g>
				<g>
					<path style="fill:#FEDF30;" d="M247.182,209.971l-57.561,99.698c-3.907,6.767,0.977,15.227,8.791,15.227h115.121
						c7.814,0,12.698-8.459,8.791-15.227l-57.561-99.698C260.857,203.204,251.089,203.204,247.182,209.971l-57.561,99.698
						c-3.907,6.767,0.977,15.227,8.791,15.227h115.121c7.814,0,12.698-8.459,8.791-15.227l-57.561-99.698
						C260.857,203.204,251.089,203.204,247.182,209.971z"/>
				</g>
			</g>
		</g>
	</g>
	<g>
		<g>
			<g>
				<g>
					<path style="fill:#FAC600;" d="M322.324,309.669l-57.561-99.698c-3.907-6.767-13.675-6.767-17.582,0l-6.209,10.754
						l51.352,88.944c3.907,6.767-0.977,15.227-8.791,15.227h30C321.348,324.896,326.232,316.436,322.324,309.669z"/>
				</g>
			</g>
		</g>
	</g>
	<g>
		<path d="M255.973,291.181c-4.262,0-7.718,3.455-7.718,7.718s3.455,7.718,7.718,7.718c4.262,0,7.718-3.455,7.718-7.718
			S260.235,291.181,255.973,291.181z"/>
		<path d="M371.604,404.271c61.988-74.703,93.419-141.544,93.419-198.666c0-61.487-16.522-121.214-46.523-168.177
			c-2.599-4.069-6.307-7.219-10.722-9.11l-5.694-2.438c-80.566-34.506-211.656-34.506-292.223,0l-5.694,2.438
			c-4.415,1.891-8.123,5.041-10.722,9.11c-30.001,46.963-46.523,106.69-46.523,168.177c0,122.849,147.912,261.037,193.246,300.464
			c4.505,3.918,10.155,5.877,15.805,5.877c5.65,0,11.3-1.959,15.806-5.877c15.639-13.601,46.745-41.837,79.367-78.131
			c0.002-0.002,0.003-0.004,0.005-0.006c7.085-7.881,13.966-15.841,20.453-23.659C371.604,404.272,371.604,404.271,371.604,404.271z
			 M261.935,494.75c-3.398,2.956-8.524,2.956-11.924,0c-18.898-16.436-67.454-60.529-110.078-114.863
			c-51.765-65.986-78.011-124.624-78.011-174.283c0-58.661,15.685-115.52,44.164-160.102c0.972-1.521,2.35-2.695,3.986-3.396
			l5.694-2.438c37.169-15.919,86.962-24.687,140.207-24.687c53.244,0,103.037,8.767,140.206,24.687l5.694,2.438
			c1.636,0.701,3.015,1.875,3.986,3.396c28.479,44.582,44.164,101.441,44.164,160.102c0,29.028-9.192,61.631-27.322,96.904
			c-14.961,29.108-36.037,60.124-62.641,92.185c0,0-0.001,0.001-0.001,0.001c-6.362,7.667-13.113,15.476-20.066,23.212
			c-0.001,0.002-0.003,0.003-0.005,0.005C307.904,453.608,277.313,481.375,261.935,494.75z"/>
		<path d="M391.063,70.804c-2.544-4.559-6.598-8.206-11.414-10.269c-35.042-15.008-78.964-23.274-123.676-23.274
			c-20.811,0-41.47,1.772-61.405,5.267c-4.08,0.715-6.808,4.602-6.092,8.682s4.603,6.81,8.682,6.092
			c19.082-3.345,38.871-5.041,58.815-5.041c42.728,0,84.553,7.835,117.771,22.063c1.785,0.765,3.284,2.11,4.221,3.79
			c20.521,36.769,31.368,80.854,31.368,127.491c0,45.416-30.536,104.978-88.306,172.247c-17.662,20.566-37.443,41.283-58.796,61.575
			c-3.51,3.335-9.008,3.335-12.517,0c-21.35-20.289-41.132-41.006-58.797-61.575c-57.77-67.27-88.306-126.832-88.306-172.247
			c0-46.636,10.847-90.721,31.367-127.49c0.938-1.68,2.438-3.026,4.223-3.791c8.189-3.507,17.033-6.674,26.288-9.411
			c3.972-1.175,6.239-5.347,5.064-9.319c-1.174-3.972-5.347-6.239-9.319-5.064c-9.813,2.903-19.213,6.27-27.938,10.006
			c-4.816,2.063-8.87,5.709-11.416,10.269c-21.765,38.999-33.269,85.611-33.269,134.8c0,49.05,31.788,111.992,91.926,182.019
			c17.994,20.953,38.128,42.04,59.844,62.676c4.652,4.421,10.622,6.631,16.591,6.631s11.939-2.21,16.591-6.631
			c21.719-20.639,41.853-41.727,59.843-62.676c60.138-70.027,91.926-132.968,91.926-182.019
			C424.333,156.415,412.828,109.802,391.063,70.804z"/>
		<path d="M367.087,143.688c2.402,0,4.658-1.15,6.069-3.094c1.411-1.943,1.806-4.445,1.062-6.729
			c-5.864-18.004-22.529-30.102-41.469-30.102c-15.969,0-30.406,8.602-38.056,22.295h-77.44
			c-7.65-13.693-22.087-22.295-38.056-22.295c-18.94,0-35.606,12.097-41.469,30.102c-0.744,2.284-0.349,4.785,1.062,6.729
			c1.411,1.943,3.667,3.094,6.069,3.094h31.727l1.873,3.757l-1.957,4.091h-31.484c-2.42,0-4.691,1.167-6.1,3.136
			s-1.78,4.495-0.999,6.785c6.024,17.665,22.613,29.534,41.278,29.534c16.293,0,30.857-8.844,38.399-22.923h76.753
			c7.542,14.079,22.106,22.923,38.399,22.923c18.665,0,35.253-11.869,41.278-29.534c0.781-2.291,0.409-4.817-0.999-6.785
			s-3.68-3.136-6.1-3.136h-31.484l-1.957-4.091l1.873-3.757H367.087z M318.375,150.615l5.578,11.658
			c1.247,2.605,3.878,4.263,6.766,4.263h23.286c-5.313,5.892-12.973,9.455-21.255,9.455c-11.848,0-22.303-7.13-26.636-18.165
			c-1.127-2.871-3.897-4.758-6.981-4.758h-86.318c-3.084,0-5.854,1.888-6.981,4.758c-4.333,11.035-14.789,18.165-26.636,18.165
			c-8.283,0-15.942-3.563-21.255-9.455h23.286c2.888,0,5.519-1.658,6.766-4.263l5.578-11.658c0.998-2.085,0.978-4.514-0.053-6.583
			l-5.578-11.189c-1.269-2.545-3.868-4.154-6.712-4.154h-23.718c5.314-6.177,13.148-9.924,21.688-9.924
			c11.613,0,21.992,6.935,26.441,17.667c1.162,2.802,3.896,4.628,6.928,4.628h86.813c3.033,0,5.767-1.826,6.928-4.628
			c4.449-10.732,14.828-17.667,26.441-17.667c8.539,0,16.373,3.747,21.687,9.924h-23.718c-2.844,0-5.443,1.609-6.712,4.154
			l-5.578,11.189C317.397,146.1,317.377,148.53,318.375,150.615z"/>
		<path d="M255.973,197.396c-0.493,0-0.981,0.02-1.464,0.059c-5.784,0.464-10.878,3.667-13.822,8.767l-57.561,99.698
			c-1.595,2.763-2.393,5.794-2.393,8.825s0.798,6.063,2.393,8.826c3.19,5.526,8.905,8.826,15.286,8.826h115.121
			c6.381,0,12.096-3.299,15.287-8.826c1.595-2.763,2.393-5.794,2.393-8.825s-0.798-6.063-2.393-8.825l-57.561-99.698
			C268.069,200.695,262.354,197.396,255.973,197.396z M316.2,314.738c0,0.572-0.202,1.041-0.37,1.333
			c-0.286,0.495-0.964,1.326-2.296,1.326H198.412c-1.332,0-2.01-0.831-2.296-1.326c-0.168-0.292-0.37-0.761-0.37-1.333
			c0-0.398,0.097-0.845,0.37-1.318l57.561-99.698c0.666-1.153,1.725-1.326,2.296-1.326c0.571,0,1.63,0.172,2.296,1.326
			l57.561,99.698C316.102,313.892,316.2,314.34,316.2,314.738z"/>
		<path d="M248.473,255.346v23.262c0,4.142,3.358,7.5,7.5,7.5s7.5-3.358,7.5-7.5v-23.262c0-4.142-3.358-7.5-7.5-7.5
			S248.473,251.204,248.473,255.346z"/>
	</g>
</g>
<g>
</g>
<g>
</g>
<g>
</g>
<g>
</g>
<g>
</g>
<g>
</g>
<g>
</g>
<g>
</g>
<g>
</g>
<g>
</g>
<g>
</g>
<g>
</g>
<g>
</g>
<g>
</g>
<g>
</g>
</svg>
